<?xml version="1.0" standalone="no"?>
<!DOCTYPE svg PUBLIC "-//W3C//DTD SVG 20010904//EN"
 "http://www.w3.org/TR/2001/REC-SVG-20010904/DTD/svg10.dtd">
<svg version="1.0" xmlns="http://www.w3.org/2000/svg"
 width="380.000000pt" height="380.000000pt" viewBox="0 0 380.000000 380.000000"
 preserveAspectRatio="xMidYMid meet">
<metadata>
Created by potrace 1.14, written by Peter Selinger 2001-2017
</metadata>
<g transform="translate(0.000000,380.000000) scale(0.100000,-0.100000)"
fill="#000000" stroke="none">
<path d="M2480 3690 c0 -13 11 -13 30 0 12 8 11 10 -7 10 -13 0 -23 -4 -23
-10z"/>
<path d="M2696 3593 c36 -94 54 -154 54 -181 0 -12 7 -25 15 -29 23 -8 31 5
17 27 -7 11 -12 32 -12 48 0 28 -72 186 -90 197 -5 3 2 -25 16 -62z"/>
<path d="M2385 3598 c-42 -49 -74 -112 -75 -146 0 -13 -11 -56 -24 -95 -25
-73 -71 -354 -63 -385 3 -12 5 -10 9 8 10 41 28 194 28 230 0 18 3 30 7 26 7
-7 32 75 33 110 0 11 9 39 20 62 11 22 20 45 20 50 0 14 41 95 72 140 16 23
25 42 19 42 -5 0 -26 -19 -46 -42z"/>
<path d="M2775 3340 c-8 -13 -1 -24 14 -19 6 3 7 10 2 18 -6 10 -10 10 -16 1z"/>
<path d="M2780 3306 c0 -2 9 -6 20 -9 11 -3 18 -1 14 4 -5 9 -34 13 -34 5z"/>
<path d="M2810 3265 c-11 -13 -10 -14 4 -9 9 3 16 10 16 15 0 13 -6 11 -20 -6z"/>
<path d="M2317 3103 c-4 -3 -7 -11 -7 -17 0 -6 5 -5 12 2 6 6 9 14 7 17 -3 3
-9 2 -12 -2z"/>
<path d="M2301 3054 c0 -11 3 -14 6 -6 3 7 2 16 -1 19 -3 4 -6 -2 -5 -13z"/>
<path d="M2291 3014 c0 -11 3 -14 6 -6 3 7 2 16 -1 19 -3 4 -6 -2 -5 -13z"/>
<path d="M2206 2924 c-4 -15 -16 -46 -27 -68 -10 -22 -19 -56 -19 -76 0 -19
-6 -44 -13 -55 -8 -11 -19 -53 -26 -93 -11 -64 -16 -75 -40 -85 -14 -6 -40
-26 -57 -44 -18 -18 -37 -33 -44 -33 -7 0 -49 -21 -93 -47 -44 -26 -122 -64
-173 -84 -130 -52 -293 -182 -387 -309 -88 -120 -182 -220 -204 -220 -13 0
-23 -5 -23 -11 0 -8 -14 -9 -43 -5 -23 4 -123 11 -222 16 -99 4 -234 16 -299
25 -109 15 -124 15 -180 1 -34 -9 -77 -18 -96 -20 -19 -2 37 -1 125 1 89 3
195 0 240 -6 44 -6 138 -18 210 -26 130 -16 229 -46 175 -53 -41 -6 -76 -61
-50 -77 6 -4 8 -11 5 -16 -4 -5 2 -10 12 -11 10 0 23 -2 28 -3 6 -2 18 -3 28
-4 10 0 15 -5 12 -11 -3 -5 -1 -10 6 -10 6 0 17 -8 24 -17 12 -16 14 -16 29
-1 17 17 21 30 9 26 -5 -2 -9 2 -10 7 -1 6 5 9 14 8 11 -1 14 6 10 23 -2 13 0
21 4 18 5 -3 9 5 9 18 1 21 2 22 14 6 16 -22 36 -23 36 -3 0 8 -4 15 -10 15
-23 0 -8 37 22 54 l31 19 39 -42 c36 -38 38 -43 23 -57 -15 -15 -17 -15 -29 1
-9 12 -19 16 -32 11 -14 -5 -15 -9 -5 -15 11 -7 11 -9 0 -13 -10 -3 -7 -8 9
-17 14 -7 22 -8 22 -1 0 18 18 11 25 -11 4 -13 1 -27 -10 -39 -15 -17 -14 -18
12 -29 52 -22 73 -36 73 -48 0 -6 6 -14 13 -17 6 -3 1 -3 -13 0 -14 4 -33 13
-42 21 -10 9 -24 13 -32 10 -10 -4 -13 -1 -9 9 3 8 -1 14 -10 14 -8 0 -24 12
-34 26 l-20 27 0 -32 c0 -21 5 -31 16 -31 13 -1 12 -3 -3 -15 -12 -9 -15 -15
-7 -15 10 0 11 -3 2 -13 -9 -12 0 -13 54 -11 35 2 67 -1 70 -6 4 -6 11 -8 16
-5 5 3 6 -1 3 -9 -4 -10 -1 -16 7 -16 8 0 5 -6 -7 -15 -18 -15 -18 -15 11 -13
20 2 29 -1 28 -9 -2 -8 7 -13 22 -13 16 0 25 -6 25 -15 0 -8 9 -15 20 -15 11
0 23 -6 26 -14 5 -12 11 -13 32 -3 15 6 35 18 45 26 18 15 18 16 -1 32 -11 8
-21 24 -23 34 -2 10 -12 19 -22 21 -24 3 -47 23 -47 40 0 7 -7 20 -16 28 -8 9
-16 25 -17 36 -1 19 -10 25 -31 21 -4 -1 -14 3 -20 9 -16 12 -27 3 -19 -16 3
-9 -2 -14 -16 -14 -12 0 -21 5 -21 10 0 6 -9 10 -20 10 -11 0 -20 3 -20 6 0
13 31 36 43 31 20 -8 15 43 -6 58 -15 11 -16 13 -2 19 8 3 15 2 15 -2 0 -4 12
-15 28 -24 15 -10 21 -18 14 -18 -20 0 -3 -20 17 -20 12 0 17 7 17 23 -1 18 4
22 29 21 17 -1 47 -5 67 -9 54 -11 72 -2 56 27 -7 13 -20 31 -28 42 -8 10 -15
26 -15 35 -1 9 -7 27 -14 40 -9 16 -10 26 -2 34 12 12 41 -8 41 -28 0 -7 7
-18 15 -25 11 -10 18 -9 30 3 13 14 12 19 -13 48 -15 18 -21 30 -14 25 7 -4
15 -1 18 8 8 21 23 20 46 -1 10 -9 21 -13 25 -9 7 7 -37 42 -49 38 -5 -1 -8 3
-8 8 0 6 5 10 11 10 5 0 7 5 4 10 -3 5 -2 10 3 10 6 0 12 -7 16 -15 3 -8 12
-15 21 -15 18 0 19 5 5 31 -8 13 -7 19 1 19 7 0 9 13 5 38 -13 75 -16 173 -6
167 6 -3 10 -10 10 -15 0 -5 5 -21 12 -37 6 -15 11 -31 10 -35 -1 -5 2 -8 6
-8 5 0 8 -21 7 -47 -1 -48 12 -93 26 -93 4 0 10 -9 14 -19 7 -24 45 -36 45
-14 0 10 6 13 17 9 15 -6 16 -5 1 11 -22 25 -32 63 -18 63 7 0 9 7 6 16 -4 10
-2 13 6 8 8 -5 9 -2 5 9 -3 10 -2 17 4 17 6 0 10 15 8 33 -2 42 10 77 27 77 8
0 14 5 14 11 0 8 4 8 15 -1 9 -8 12 -22 8 -41 -3 -18 -1 -29 6 -29 6 0 11 -5
11 -11 0 -6 -7 -9 -15 -5 -18 6 -19 -14 -5 -64 8 -29 7 -37 -6 -47 -11 -8 -17
-27 -17 -52 0 -24 -5 -42 -13 -45 -25 -10 -15 -26 16 -26 17 0 30 5 30 10 0 6
5 10 11 10 8 0 8 -4 -1 -15 -21 -25 -2 -35 61 -30 39 3 69 12 85 24 l25 19
-23 16 c-20 14 -23 14 -31 1 -17 -31 -34 -15 -40 36 -6 52 1 112 12 105 4 -3
8 5 8 16 1 12 8 25 15 29 7 5 13 16 14 26 3 56 2 54 24 36 22 -19 27 -38 8
-27 -7 4 -1 -4 15 -19 28 -27 36 -62 16 -69 -6 -2 7 -16 30 -31 22 -15 42 -35
43 -45 2 -30 4 -36 21 -76 14 -32 19 -36 32 -26 12 10 18 10 30 0 12 -10 15
-10 15 4 0 9 5 16 10 16 6 0 10 5 10 11 0 6 12 27 28 47 15 20 22 33 15 29
-13 -8 -43 18 -43 38 0 8 7 11 20 8 14 -4 20 0 20 11 0 9 -4 16 -8 16 -4 0 -8
9 -9 20 -1 11 2 20 8 20 5 0 9 -6 10 -12 0 -7 9 4 18 25 10 20 20 34 24 31 3
-4 0 -16 -8 -28 -20 -28 -19 -42 1 -25 15 12 16 11 9 -11 -8 -25 -8 -25 14 -6
21 19 21 19 21 0 0 -17 2 -16 19 5 11 15 21 20 25 13 4 -7 15 -6 33 3 31 16
56 4 35 -17 -20 -20 -13 -32 8 -13 12 11 20 13 20 6 0 -9 5 -9 20 -1 11 6 20
16 20 22 0 7 -5 6 -15 -2 -21 -18 -32 -4 -17 21 11 17 10 20 -5 17 -14 -2 -17
3 -15 20 3 21 2 22 -19 12 -19 -11 -21 -10 -16 5 4 9 7 19 7 21 0 3 5 2 10 -1
12 -7 16 4 25 69 5 36 4 46 -6 41 -9 -6 -10 1 -5 29 4 23 3 36 -4 36 -5 0 -10
5 -10 11 0 6 6 9 14 6 18 -7 30 41 21 83 -5 23 -3 32 10 36 26 10 28 -2 16
-66 -12 -60 -8 -100 10 -100 5 0 9 7 9 15 0 8 5 15 10 15 6 0 10 7 10 15 0 20
16 19 24 -1 4 -10 0 -21 -10 -28 -8 -7 -14 -18 -12 -26 2 -8 -3 -14 -11 -15
-8 0 -23 -15 -34 -32 -23 -40 -16 -42 16 -7 l24 26 16 -23 c15 -21 19 -21 42
-9 14 7 27 11 30 8 3 -3 -10 -32 -29 -66 -35 -62 -37 -75 -8 -64 37 14 -28
-54 -84 -88 -32 -19 -60 -41 -62 -49 -3 -9 0 -11 8 -6 9 5 11 4 6 -4 -5 -8
-12 -9 -20 -2 -9 8 -17 1 -29 -27 -18 -40 -53 -80 -113 -127 -20 -16 -47 -40
-58 -53 -12 -13 -33 -37 -48 -53 -22 -24 -28 -41 -30 -87 -3 -51 -6 -57 -26
-60 -12 -2 -20 -8 -17 -13 8 -12 -19 -39 -38 -39 -9 0 -18 6 -21 13 -3 8 -8 7
-16 -5 -6 -10 -19 -18 -28 -18 -15 1 -15 2 2 15 15 11 16 15 5 15 -8 0 -21 -6
-28 -12 -10 -11 -11 -9 -5 7 7 18 6 18 -9 6 -15 -12 -15 -15 6 -32 12 -10 18
-18 13 -19 -5 0 -3 -7 4 -15 10 -12 10 -15 -3 -15 -12 0 -15 -7 -10 -34 6 -39
-12 -51 -52 -36 -24 9 -32 38 -25 90 1 10 -3 9 -14 -5 -15 -20 -15 -20 -16 4
0 17 -4 22 -16 17 -11 -4 -15 -2 -11 8 4 10 1 13 -7 10 -8 -3 -12 -14 -9 -25
4 -13 11 -18 20 -14 11 4 13 1 9 -11 -3 -8 -6 -18 -6 -20 0 -2 -7 -4 -15 -4
-8 0 -15 8 -15 18 0 14 -2 15 -10 2 -6 -10 -10 -11 -10 -2 0 6 -5 12 -11 12
-6 0 -9 -7 -5 -15 8 -21 -3 -45 -21 -45 -7 0 -13 -6 -12 -12 4 -20 -29 -88
-42 -88 -6 0 -20 11 -31 26 -19 23 -22 24 -37 10 -10 -9 -23 -16 -29 -16 -7 0
-12 -4 -12 -10 0 -20 -177 -90 -230 -90 -16 0 -31 -4 -34 -9 -3 -4 -21 -11
-39 -14 -18 -3 -51 -17 -72 -31 -45 -31 -68 -30 -70 1 -2 34 -12 38 -37 17
-13 -10 -17 -12 -10 -4 18 21 15 67 -5 80 -17 11 -17 11 0 6 14 -4 18 -1 15
12 -6 29 -66 29 -95 -2 -12 -14 -23 -29 -23 -33 1 -4 9 2 19 14 19 23 34 21
24 -3 -4 -10 5 -19 26 -27 41 -15 39 -25 -6 -32 -84 -14 -99 -17 -130 -28 -29
-10 -35 -8 -53 11 -11 11 -20 28 -20 37 0 9 -9 19 -21 23 -11 5 -20 12 -19 17
1 5 -4 11 -10 13 -7 3 -9 -6 -6 -22 9 -50 30 -78 70 -92 22 -7 44 -21 50 -31
5 -10 26 -34 47 -53 45 -42 155 -205 173 -258 7 -20 17 -57 20 -82 12 -73 15
-78 39 -73 13 3 18 1 11 -4 -12 -10 -13 -53 -1 -53 4 0 6 -3 3 -8 -2 -4 2 -22
10 -40 12 -29 16 -32 34 -22 11 6 46 36 77 66 32 31 50 51 40 44 -9 -7 -20
-10 -23 -7 -4 3 -22 -5 -42 -18 -45 -30 -53 -24 -22 17 24 33 20 35 -32 13
-26 -11 -22 10 5 23 20 11 20 11 -8 6 -27 -4 -28 -3 -11 8 66 46 67 47 49 74
-8 14 -13 27 -10 31 3 3 35 9 71 12 36 4 73 14 83 22 10 9 25 19 33 23 8 4 -1
-6 -20 -23 -19 -17 -31 -31 -28 -31 20 0 138 61 138 72 0 9 -3 9 -8 2 -4 -6
-15 -14 -26 -17 -17 -7 -18 -6 -4 15 8 13 24 28 35 33 11 6 18 16 16 22 -3 7
7 22 21 34 14 13 26 29 26 36 0 17 17 17 23 1 2 -8 11 0 20 17 20 38 71 95 85
95 5 0 9 -8 8 -17 0 -12 6 -17 17 -17 14 2 15 -1 6 -12 -7 -9 -8 -14 -1 -14 5
0 8 -9 5 -20 -5 -18 5 -25 30 -21 4 0 7 -3 7 -7 0 -4 12 -7 28 -7 15 1 43 -7
63 -16 20 -10 65 -23 99 -28 95 -16 183 -61 214 -110 26 -41 34 -81 16 -81
-15 0 -12 -18 6 -32 9 -7 27 -23 40 -35 13 -12 31 -20 38 -17 9 4 21 -6 31
-25 8 -17 20 -31 26 -31 6 0 9 -7 6 -14 -4 -10 -1 -13 9 -9 18 7 18 5 -10 61
-13 26 -22 59 -19 74 2 14 0 29 -5 32 -11 7 -3 66 9 66 5 0 9 -4 9 -9 0 -5 7
-12 16 -15 8 -3 13 -2 11 2 -3 4 8 7 25 8 20 1 25 -2 16 -7 -7 -5 -10 -9 -5
-9 4 0 15 5 25 11 12 8 36 9 68 4 39 -6 45 -9 29 -16 -15 -6 -16 -8 -4 -8 9
-1 33 -12 53 -26 35 -24 51 -20 21 5 -19 16 -9 33 15 25 10 -3 25 2 35 11 14
15 18 15 27 3 7 -11 9 -8 5 9 -7 30 1 28 13 -3 10 -26 34 -32 60 -15 13 8 13
13 -2 37 -9 15 -28 34 -42 41 -14 7 -26 20 -26 28 0 7 -9 14 -19 14 -11 0 -32
11 -47 25 -15 14 -33 25 -41 25 -11 0 -11 -4 0 -27 8 -16 17 -38 21 -49 10
-34 -21 -39 -56 -9 -31 26 -68 33 -68 13 0 -9 -3 -9 -12 0 -19 19 -26 14 -30
-15 -3 -24 -8 -28 -35 -28 -18 -1 -33 4 -33 9 0 5 -9 1 -19 -8 -18 -16 -20
-16 -35 6 -9 12 -16 18 -16 13 0 -23 -50 51 -57 84 -12 57 -6 230 10 291 11
40 11 57 3 63 -8 6 -8 10 1 13 8 4 9 13 4 28 -5 12 -11 40 -12 61 -5 46 -17
59 -39 42 -13 -11 -13 -10 -1 6 7 9 11 17 7 17 -3 0 4 11 16 25 12 14 24 21
28 15 3 -5 19 2 35 15 l30 24 -30 -1 c-16 0 -43 -5 -58 -11 -41 -15 -43 -2 -3
23 38 23 48 56 21 66 -8 4 -15 15 -15 25 0 11 7 22 15 25 8 4 15 12 15 19 0 7
16 30 35 49 19 20 35 42 35 50 0 7 7 19 15 26 8 7 15 23 15 37 0 15 16 41 43
68 43 44 90 68 85 43 -2 -7 7 -14 19 -16 12 -2 24 -10 27 -18 8 -21 -24 -31
-39 -11 -9 12 -14 14 -23 5 -17 -17 -15 -38 3 -32 10 4 15 0 15 -15 0 -12 -6
-21 -16 -21 -8 0 -13 -4 -10 -8 3 -5 -3 -21 -14 -37 -10 -15 -16 -34 -13 -41
3 -9 -2 -14 -12 -14 -9 0 -14 -4 -11 -9 3 -5 -3 -20 -14 -33 -11 -14 -16 -29
-12 -33 4 -5 -2 -5 -13 -1 -11 4 -16 4 -12 0 4 -4 1 -14 -6 -23 -9 -12 -5 -11
18 3 17 10 39 26 50 36 39 34 88 53 65 25 -7 -9 -10 -18 -7 -21 3 -3 20 23 37
58 43 85 69 128 98 160 13 14 21 31 18 36 -4 6 2 8 14 5 12 -3 20 0 20 6 0 7
5 9 11 6 7 -5 3 -15 -10 -29 -12 -12 -21 -31 -21 -43 0 -11 -9 -28 -20 -38
-16 -14 -20 -15 -20 -4 0 8 5 20 12 27 6 6 9 14 6 18 -7 7 -63 -75 -63 -93 0
-6 -8 -20 -18 -31 -25 -27 -40 -82 -22 -82 7 0 20 11 29 25 9 14 14 25 11 25
-8 0 31 37 59 55 14 10 26 13 26 9 0 -15 -14 -30 -32 -37 -10 -3 -18 -13 -18
-21 0 -8 -9 -21 -20 -29 -18 -13 -19 -16 -5 -27 12 -10 15 -10 15 2 0 10 8 15
23 14 12 -1 28 3 36 8 8 6 15 9 15 6 1 -3 17 8 37 24 28 22 34 32 25 42 -8 8
-15 9 -23 2 -7 -6 -13 -8 -13 -6 0 3 24 25 54 48 30 24 57 54 61 67 3 13 9 23
13 23 4 0 7 38 5 85 -2 51 1 85 7 85 6 0 10 6 10 13 0 21 35 48 54 41 10 -4
16 -1 16 9 0 9 4 18 9 21 5 4 7 -3 4 -14 -5 -18 -2 -19 25 -14 22 4 36 1 47
-10 10 -10 12 -16 5 -16 -7 0 -10 -7 -6 -15 5 -15 -48 -85 -65 -85 -5 0 -9 9
-9 19 0 55 -49 10 -56 -51 -2 -17 -3 -29 -1 -27 1 2 9 13 17 23 10 13 10 17 3
12 -7 -4 -13 -2 -13 3 0 14 27 14 36 0 3 -6 0 -15 -7 -20 -8 -5 -10 -9 -5 -9
6 0 -5 -16 -24 -35 -18 -19 -32 -37 -29 -39 3 -3 20 14 39 37 20 23 40 43 45
43 6 1 20 5 33 9 14 4 22 2 22 -5 0 -7 7 -9 15 -6 9 3 24 1 34 -6 15 -9 22 -7
38 8 42 43 46 52 28 70 -14 15 -18 15 -26 3 -7 -12 -9 -11 -9 2 0 23 36 55 43
37 3 -10 9 -10 23 -2 27 16 29 33 2 28 -13 -2 -5 2 16 11 31 12 47 13 78 4 28
-7 43 -7 53 1 7 6 17 10 21 9 5 -1 11 -1 14 0 3 1 24 4 47 6 32 2 45 -1 53
-13 12 -22 13 -10 0 23 -6 16 -14 23 -22 19 -7 -5 -9 -2 -5 8 8 23 -40 94
-132 193 -43 47 -101 119 -128 160 -26 41 -52 75 -57 75 -4 0 -34 21 -65 48
-31 26 -72 55 -93 64 -40 19 -48 13 -48 -37 0 -21 -23 -49 -86 -104 -9 -7 -27
-13 -40 -13 -24 0 -33 -15 -37 -65 -2 -27 -24 -38 -43 -22 -11 9 -18 8 -29 -1
-12 -10 -16 -9 -21 4 -3 9 -12 16 -19 16 -7 0 -16 6 -19 13 -3 9 -9 7 -19 -5
-19 -23 -26 -23 -20 2 6 23 -32 36 -69 24 -13 -4 -25 -8 -28 -9 -3 0 -19 -7
-37 -15 -27 -12 -31 -18 -27 -45 4 -26 3 -27 -5 -8 -5 12 -16 25 -24 30 -7 4
-19 17 -25 28 -7 13 -11 15 -12 6 0 -11 -4 -10 -16 5 -11 13 -17 15 -20 6 -3
-6 -11 -9 -16 -6 -7 5 -8 2 -3 -6 4 -7 4 -15 -1 -19 -14 -10 31 -90 46 -81 7
5 10 16 5 31 -3 13 -3 19 2 13 4 -6 16 -13 26 -17 20 -8 24 -72 4 -80 -9 -3
-12 5 -9 32 3 28 2 33 -8 24 -7 -6 -15 -32 -17 -57 -3 -25 -9 -43 -14 -40 -5
3 -9 -4 -9 -15 0 -11 -5 -23 -11 -27 -8 -5 -10 4 -7 29 3 26 -1 38 -14 46 -13
8 -17 21 -15 45 3 42 17 37 18 -7 l1 -32 10 32 c9 27 7 37 -8 60 -11 15 -19
35 -20 43 -1 8 -2 38 -4 65 -2 45 -3 47 -10 20 -5 -20 -8 -23 -9 -10 -1 29 10
65 21 65 5 0 8 -6 7 -12 -5 -43 2 -87 14 -82 10 3 11 19 6 62 -3 31 -4 63 -1
71 4 11 1 13 -13 8 -15 -6 -17 -3 -11 25 4 24 3 29 -4 18 -10 -16 -13 -9 -11
30 2 24 1 24 -14 6 -13 -17 -15 -17 -15 -4 0 9 5 20 10 23 6 4 5 12 -4 21 -19
19 -26 18 -27 -3 0 -12 -2 -14 -6 -5 -4 10 -9 7 -17 -10 -6 -12 -18 -23 -26
-23 -26 0 -42 -35 -44 -96 -1 -62 -5 -69 -26 -44 -18 22 -7 114 24 198 13 37
22 67 20 67 -2 0 1 12 6 26 6 15 6 32 1 41 -6 12 -10 10 -15 -13z m109 -469
c29 -55 28 -78 -3 -59 -11 7 -17 24 -17 48 0 20 -3 36 -7 36 -5 0 -8 7 -8 15
0 24 5 18 35 -40z m-171 -26 c-3 -5 7 -14 21 -19 15 -6 32 -24 41 -45 13 -32
13 -37 -2 -52 -15 -16 -17 -16 -29 0 -16 22 -29 22 -20 0 11 -25 13 -83 3 -83
-4 0 -8 4 -8 8 0 14 -36 52 -49 52 -6 0 -11 5 -11 10 0 6 -7 10 -15 10 -17 0
-21 -16 -5 -22 6 -2 4 -14 -5 -30 -9 -19 -10 -28 -3 -28 6 0 8 -3 5 -7 -4 -3
-19 6 -34 21 l-27 28 22 17 c15 11 21 23 16 34 -5 15 -3 16 21 7 36 -14 36
-13 29 15 -5 21 -3 25 15 25 19 0 21 6 22 58 0 46 2 52 10 34 5 -13 7 -28 3
-33z m-24 21 c0 -5 -4 -10 -10 -10 -5 0 -10 5 -10 10 0 6 5 10 10 10 6 0 10
-4 10 -10z m130 -12 c0 12 6 22 14 22 19 0 28 -27 13 -37 -13 -9 -19 -55 -6
-47 5 2 13 -6 20 -18 11 -21 11 -22 -4 -9 -14 11 -17 11 -17 0 0 -8 -7 -4 -16
9 -8 12 -21 22 -27 22 -13 0 -57 43 -57 55 0 4 7 2 15 -5 13 -10 15 -9 15 11
l0 22 25 -23 25 -23 0 21z m397 -58 c4 -9 11 4 19 35 6 28 13 42 13 32 1 -10
6 -15 11 -12 6 4 10 -10 10 -34 0 -23 -4 -41 -10 -41 -5 0 -10 -4 -10 -10 0
-5 5 -9 11 -7 18 3 21 -17 5 -38 -15 -20 -15 -20 -30 0 -9 11 -14 25 -11 32 2
6 -3 17 -11 23 -9 9 -14 9 -14 2 0 -6 -9 -16 -19 -21 -16 -9 -18 -8 -14 9 3
11 10 17 15 14 6 -4 8 5 3 25 -3 17 -3 41 1 53 7 21 8 20 16 -12 5 -19 12 -42
15 -50z m-617 19 c0 -6 -4 -7 -10 -4 -5 3 -10 11 -10 16 0 6 5 7 10 4 6 -3 10
-11 10 -16z m731 4 c1 -10 3 -28 4 -41 1 -12 -2 -25 -6 -28 -5 -3 -9 10 -10
28 0 30 -1 31 -9 11 -5 -13 -14 -23 -20 -23 -13 0 -13 1 6 38 17 35 33 42 35
15z m-271 -88 c0 -65 -2 -75 -18 -75 -19 0 -23 34 -7 60 5 8 10 22 10 30 1 8
2 25 3 38 1 12 4 22 7 22 3 0 5 -34 5 -75z m481 21 c-6 -14 -15 -26 -20 -26
-6 0 -2 13 7 29 20 36 26 34 13 -3z m-61 -4 c0 -10 -7 -19 -14 -19 -11 0 -13
5 -5 19 5 10 12 18 14 18 3 0 5 -8 5 -18z m-87 -12 c3 -11 -1 -27 -9 -34 -22
-23 -17 -35 13 -30 15 3 30 7 34 10 14 8 38 -8 32 -22 -3 -8 -9 -14 -14 -14
-4 0 -5 8 -2 17 7 17 5 17 -17 2 -14 -9 -35 -18 -47 -21 -18 -5 -23 -2 -23 14
0 10 -4 16 -10 13 -16 -10 -12 5 6 23 11 10 13 17 5 20 -8 3 -8 9 -1 23 14 25
26 24 33 -1z m-545 -22 c1 -18 5 -41 8 -52 4 -13 2 -17 -7 -14 -15 5 -24 60
-15 84 8 21 12 17 14 -18z m29 -20 c-2 -13 -4 -5 -4 17 -1 22 1 32 4 23 2 -10
2 -28 0 -40z m130 30 c-3 -8 -6 -5 -6 6 -1 11 2 17 5 13 3 -3 4 -12 1 -19z
m550 -23 c-13 -27 -33 -35 -23 -9 3 9 6 20 6 25 0 5 6 9 14 9 11 0 12 -5 3
-25z m-782 -25 c3 -5 1 -10 -4 -10 -6 0 -11 5 -11 10 0 6 2 10 4 10 3 0 8 -4
11 -10z m723 -17 c-2 -9 -8 -18 -15 -20 -7 -3 -9 3 -6 16 6 25 26 28 21 4z
m-935 -33 c3 0 7 7 9 16 2 13 7 12 26 -6 26 -24 22 -41 -4 -20 -13 12 -17 11
-24 0 -5 -9 -4 -20 3 -29 10 -12 9 -13 -13 -1 -46 23 -60 41 -47 55 10 11 15
11 28 -1 8 -8 18 -14 22 -14z m246 -20 c-1 -21 -2 -21 -6 -5 -3 11 -9 25 -14
31 -5 6 -6 14 -2 18 10 10 23 -16 22 -44z m107 -7 c-9 -39 -12 -42 -14 -20 -2
15 -8 25 -13 22 -5 -4 -9 -1 -9 5 0 6 -4 8 -10 5 -6 -3 -7 1 -3 10 5 13 8 14
15 3 7 -10 10 -10 19 5 18 31 25 18 15 -30z m-194 15 c14 3 18 -3 18 -23 0
-23 -2 -25 -21 -14 -20 10 -21 9 -16 -10 3 -14 0 -21 -9 -21 -17 0 -18 -31 -1
-49 10 -11 9 -13 -2 -9 -8 2 -18 11 -21 19 -4 8 -12 24 -18 36 -7 13 -8 24 -3
28 5 3 12 19 16 36 6 26 9 28 22 17 9 -7 24 -12 35 -10z m302 -4 c7 -19 -2
-37 -15 -29 -12 8 -12 45 0 45 5 0 12 -7 15 -16z m64 -32 c-2 -8 -13 -18 -25
-23 -20 -7 -23 -5 -23 15 0 29 6 35 31 29 11 -3 19 -12 17 -21z m-210 -28 c2
-29 -2 -45 -15 -56 -17 -16 -18 -14 -19 41 -1 48 2 58 15 56 11 -1 17 -14 19
-41z m-131 -16 c-3 -8 -6 -5 -6 6 -1 11 2 17 5 13 3 -3 4 -12 1 -19z m66 1 c5
-3 2 -9 -5 -12 -9 -3 -14 3 -15 15 -1 11 1 16 5 12 4 -5 11 -12 15 -15z m94
-51 c-3 -7 -5 -2 -5 12 0 14 2 19 5 13 2 -7 2 -19 0 -25z m135 10 c-7 -7 -12
-8 -12 -2 0 6 3 14 7 17 3 4 9 5 12 2 2 -3 -1 -11 -7 -17z m-22 -3 c0 -8 -4
-15 -10 -15 -5 0 -7 7 -4 15 4 8 8 15 10 15 2 0 4 -7 4 -15z m380 -20 c-7 -9
-15 -13 -18 -10 -3 2 1 11 8 20 7 9 15 13 18 10 3 -2 -1 -11 -8 -20z m350 0
c-7 -9 -15 -13 -17 -11 -6 6 20 36 26 30 2 -2 -2 -10 -9 -19z m-1552 -30 c-3
-3 -13 7 -23 22 l-17 28 23 -22 c12 -12 20 -25 17 -28z m1286 -67 c-6 -62 -11
-73 -30 -57 -13 10 -18 6 -16 -12 1 -4 -8 -9 -18 -12 -26 -7 -26 -4 15 57 19
29 35 58 35 65 0 6 4 11 9 11 5 0 8 -23 5 -52z m-214 13 c-6 -13 -21 -21 -36
-21 -14 0 -22 4 -19 10 3 6 14 10 25 10 10 0 21 7 24 16 4 9 9 14 12 11 3 -3
1 -15 -6 -26z m-135 -19 c-3 -3 -11 0 -18 7 -9 10 -8 11 6 5 10 -3 15 -9 12
-12z m141 -17 c-11 -8 -22 -12 -25 -9 -6 6 19 24 34 24 6 -1 1 -7 -9 -15z
m-1256 -71 c0 -14 -3 -14 -15 -4 -8 7 -15 14 -15 16 0 2 7 4 15 4 8 0 15 -7
15 -16z m-120 -59 c11 -13 15 -13 21 -3 7 10 9 9 9 -4 0 -10 -4 -18 -9 -18 -5
0 -12 -16 -15 -35 -4 -19 -10 -35 -15 -35 -10 0 -71 60 -71 71 0 8 15 13 33
10 4 -1 10 6 13 14 8 19 18 19 34 0z m58 -20 c-3 -3 -9 2 -12 12 -6 14 -5 15
5 6 7 -7 10 -15 7 -18z m1062 0 c0 -8 -4 -15 -10 -15 -5 0 -10 7 -10 15 0 8 5
15 10 15 6 0 10 -7 10 -15z m360 -62 c0 -5 -11 -13 -25 -20 -14 -6 -23 -7 -19
-2 8 13 -10 11 -24 -3 -7 -7 -12 -9 -12 -6 0 4 7 14 16 22 16 16 64 22 64 9z
m-827 -371 c18 -16 18 -17 -3 -34 -24 -20 -50 -24 -50 -8 0 6 5 10 12 10 9 0
9 3 1 11 -6 6 -9 18 -6 27 4 10 2 13 -5 8 -7 -4 -12 -14 -12 -23 0 -9 -3 -14
-6 -10 -3 3 -3 15 1 27 7 23 36 20 68 -8z m-109 -16 c-3 -9 -10 -16 -15 -16
-5 0 -4 9 3 20 14 22 21 20 12 -4z m-134 -171 c-6 -17 -5 -27 6 -36 12 -10 8
-15 -28 -33 -24 -12 -44 -18 -46 -14 -2 4 -13 2 -25 -4 -12 -7 -49 -13 -83
-15 -47 -2 -65 1 -80 15 -10 10 -26 16 -34 15 -8 -2 -23 8 -33 22 -13 18 -14
25 -5 27 29 3 34 4 58 18 16 9 54 13 105 13 44 -1 85 2 90 7 12 10 56 17 72
12 8 -3 9 -11 3 -27z m-350 -13 c0 -4 -13 -16 -30 -25 -35 -21 -39 -16 -8 13
23 21 38 26 38 12z m897 -26 c-2 -5 -15 -10 -29 -10 -18 -1 -24 2 -18 9 11 13
51 14 47 1z m-1210 -2 c-3 -3 -12 -4 -19 -1 -8 3 -5 6 6 6 11 1 17 -2 13 -5z
m1187 -46 c-1 -13 -3 -26 -3 -30 -1 -4 -16 0 -35 9 -28 13 -32 18 -22 28 13
13 46 24 57 19 3 -2 5 -13 3 -26z m-799 -28 c-3 -5 -14 -10 -23 -10 -15 0 -15
2 -2 10 20 13 33 13 25 0z m695 -4 c0 -11 -19 -15 -25 -6 -3 5 1 10 9 10 9 0
16 -2 16 -4z m-816 -203 c6 -15 8 -15 16 -3 11 17 12 5 4 -27 -4 -12 -19 -26
-37 -32 -26 -9 -33 -8 -48 8 -15 16 -16 20 -4 25 8 3 15 12 15 20 0 12 12 19
41 25 4 0 10 -7 13 -16z m1313 -49 c-3 -3 -12 -4 -19 -1 -8 3 -5 6 6 6 11 1
17 -2 13 -5z m103 -26 c0 -5 -9 -3 -20 4 -11 7 -20 16 -20 20 0 5 9 3 20 -4
11 -7 20 -16 20 -20z"/>
<path d="M2050 2061 c0 -5 5 -13 10 -16 6 -3 10 -2 10 4 0 5 -4 13 -10 16 -5
3 -10 2 -10 -4z"/>
<path d="M3535 2042 c-16 -8 -33 -19 -36 -25 -4 -6 -8 -5 -10 2 -2 6 -28 11
-57 12 -45 2 -58 -2 -90 -28 -41 -33 -58 -72 -26 -58 38 15 92 15 98 0 3 -9
-1 -15 -10 -15 -8 0 -12 5 -9 10 3 6 1 10 -4 10 -6 0 -11 -4 -11 -10 0 -5 -18
-19 -41 -30 -26 -14 -39 -26 -35 -35 3 -8 1 -17 -4 -20 -12 -8 -13 -45 -1 -64
7 -11 16 -10 52 7 24 12 62 28 84 35 25 8 45 24 53 39 6 15 26 40 42 58 31 33
58 107 43 120 -4 4 -21 0 -38 -8z m-68 -98 c-3 -3 -12 -4 -19 -1 -8 3 -5 6 6
6 11 1 17 -2 13 -5z"/>
<path d="M2360 1985 c0 -8 2 -15 4 -15 2 0 6 7 10 15 3 8 1 15 -4 15 -6 0 -10
-7 -10 -15z"/>
<path d="M3275 1990 c-3 -6 1 -7 9 -4 18 7 21 14 7 14 -6 0 -13 -4 -16 -10z"/>
<path d="M2410 1971 c-7 -15 -7 -21 0 -21 12 0 25 28 17 36 -3 3 -10 -4 -17
-15z"/>
<path d="M153 1784 c-27 -25 -13 -24 17 1 8 7 24 15 35 18 18 4 18 5 -2 6 -12
0 -35 -11 -50 -25z"/>
<path d="M2095 1799 c-10 -15 1 -22 24 -14 12 3 19 11 16 16 -8 12 -32 11 -40
-2z"/>
<path d="M2919 1756 c-19 -18 -49 -38 -67 -45 -32 -13 -60 -47 -48 -59 3 -3 6
0 6 7 0 7 6 11 13 8 16 -6 115 60 134 90 23 35 -1 35 -38 -1z"/>
<path d="M100 1745 c-8 -10 -11 -33 -8 -66 4 -41 11 -56 34 -75 16 -13 37 -23
46 -24 9 0 20 -4 23 -10 7 -12 25 -13 25 -2 0 5 -16 14 -35 22 -64 25 -91 74
-74 132 10 37 7 44 -11 23z"/>
<path d="M1950 1710 c6 -11 13 -20 16 -20 2 0 0 9 -6 20 -6 11 -13 20 -16 20
-2 0 0 -9 6 -20z"/>
<path d="M1560 1650 c0 -9 32 -30 46 -30 4 0 -1 9 -11 20 -19 21 -35 26 -35
10z"/>
<path d="M1966 1628 c-9 -33 -8 -38 8 -38 8 0 16 -6 19 -12 2 -7 7 -10 11 -7
7 7 -18 79 -27 79 -3 0 -7 -10 -11 -22z"/>
<path d="M365 1511 c11 -5 30 -10 43 -10 12 -1 30 -10 39 -20 17 -21 33 -19
33 3 0 13 -17 18 -105 31 -24 4 -26 3 -10 -4z"/>
<path d="M1108 1483 c7 -3 16 -2 19 1 4 3 -2 6 -13 5 -11 0 -14 -3 -6 -6z"/>
<path d="M1085 1460 c-3 -5 1 -10 9 -10 8 0 18 5 21 10 3 6 -1 10 -9 10 -8 0
-18 -4 -21 -10z"/>
<path d="M1130 1466 c0 -2 7 -7 16 -10 8 -3 12 -2 9 4 -6 10 -25 14 -25 6z"/>
<path d="M1204 1438 c14 -11 16 -17 7 -22 -8 -5 -9 -12 -3 -19 13 -16 -3 -57
-23 -57 -8 0 -15 -4 -15 -9 0 -10 31 -23 46 -20 5 1 18 1 28 0 20 -1 20 -1 0
-17 -18 -14 -16 -15 28 -11 40 4 48 1 53 -14 8 -24 31 -24 44 0 9 16 6 19 -18
24 -24 5 -28 10 -24 27 3 13 0 20 -8 21 -8 0 -26 2 -42 4 -17 2 -25 0 -21 -7
4 -6 -1 -8 -11 -6 -10 1 -20 9 -23 17 -3 8 0 11 7 7 6 -4 11 -2 11 3 0 6 -5
11 -11 11 -5 0 -7 5 -4 10 4 6 14 10 23 9 30 -3 39 1 39 16 0 11 -4 12 -13 4
-8 -6 -14 -6 -18 0 -3 5 0 11 6 14 20 7 7 15 -37 22 -36 7 -38 6 -21 -7z"/>
<path d="M1848 1443 c7 -3 16 -2 19 1 4 3 -2 6 -13 5 -11 0 -14 -3 -6 -6z"/>
<path d="M1810 1370 c0 -5 5 -10 11 -10 5 0 7 5 4 10 -3 6 -8 10 -11 10 -2 0
-4 -4 -4 -10z"/>
<path d="M768 1326 c45 -43 74 -47 36 -5 -14 16 -68 49 -80 49 -2 0 18 -20 44
-44z"/>
<path d="M1065 1354 c-15 -11 -17 -17 -7 -23 15 -9 7 -37 -14 -45 -21 -8 -17
-21 12 -35 28 -12 44 -7 44 14 0 8 12 21 28 29 15 9 20 15 12 16 -8 0 -26 10
-40 21 -14 11 -19 18 -12 14 18 -9 38 5 21 16 -18 11 -20 11 -44 -7z"/>
<path d="M3011 1330 c-18 -4 -41 -16 -50 -25 -15 -16 -12 -17 46 -12 70 6 84
12 76 32 -6 16 -20 17 -72 5z"/>
<path d="M1358 1313 c7 -3 16 -2 19 1 4 3 -2 6 -13 5 -11 0 -14 -3 -6 -6z"/>
<path d="M3053 1272 c-34 -5 -28 -22 7 -22 17 0 30 4 30 9 0 14 -11 18 -37 13z"/>
<path d="M3000 1220 c-13 -8 -12 -10 5 -11 13 -1 10 -4 -10 -9 -30 -7 -29 -7
18 -20 101 -27 52 -36 -81 -14 -34 5 -41 4 -37 -8 3 -7 18 -21 33 -31 l27 -16
-25 -2 c-22 -1 -21 -2 9 -11 43 -12 85 -39 73 -47 -5 -3 -9 -13 -10 -21 -1 -8
-4 -27 -8 -43 -8 -36 11 -63 32 -42 8 7 14 21 14 30 0 9 4 14 9 10 5 -3 7 -31
4 -63 -4 -45 -11 -62 -31 -82 -27 -25 -27 -25 -13 -85 7 -33 15 -82 18 -110 3
-27 9 -54 13 -60 4 -5 17 -42 28 -82 11 -39 30 -82 41 -94 24 -26 27 -49 9
-67 -7 -7 -17 -26 -22 -44 -6 -17 -20 -36 -31 -42 -11 -6 -40 -23 -64 -38 -32
-20 -57 -28 -92 -28 -54 0 -73 -15 -31 -23 64 -13 153 23 220 87 71 67 84 103
79 210 -4 89 -7 100 -64 234 -11 25 -12 37 -3 47 7 8 7 15 1 19 -5 4 -10 82
-11 183 0 100 -5 182 -11 189 -6 8 -6 20 2 37 18 39 6 57 -38 57 -21 0 -45 -5
-53 -10z m20 -130 c0 -5 -7 -7 -15 -4 -8 4 -15 8 -15 10 0 2 7 4 15 4 8 0 15
-4 15 -10z m27 -12 c-3 -8 -6 -5 -6 6 -1 11 2 17 5 13 3 -3 4 -12 1 -19z"/>
<path d="M1378 1183 c7 -3 16 -2 19 1 4 3 -2 6 -13 5 -11 0 -14 -3 -6 -6z"/>
<path d="M2806 1080 c-18 -17 -27 -34 -23 -44 4 -10 1 -16 -7 -16 -7 0 -19 -7
-26 -15 -10 -13 -10 -19 5 -35 18 -20 93 -68 108 -68 4 0 28 -12 53 -27 l45
-26 -3 38 c-1 21 -6 41 -11 44 -5 4 -13 33 -17 65 -4 33 -8 52 -9 43 -1 -18
-25 -32 -35 -22 -3 3 -3 16 0 28 4 16 -1 29 -17 44 -28 26 -28 26 -63 -9z"/>
<path d="M1768 938 c-43 -23 -49 -38 -15 -38 17 0 12 -4 -18 -19 -22 -10 -49
-22 -60 -26 -18 -6 -19 -7 -3 -16 10 -5 15 -16 12 -24 -8 -19 22 -20 33 -2 4
7 21 22 37 33 25 18 35 19 62 11 24 -7 37 -7 48 2 17 14 28 51 14 51 -5 0 -6
5 -3 10 3 6 1 10 -5 10 -6 0 -8 5 -5 10 8 13 -11 13 -37 -1 -18 -10 -20 -9
-15 5 8 20 1 19 -45 -6z m81 -69 c-22 -14 -33 -10 -19 6 7 8 17 12 22 9 6 -4
5 -10 -3 -15z"/>
<path d="M1606 785 c-57 -30 -70 -70 -23 -70 14 -1 23 3 20 9 -4 5 1 7 10 3
14 -5 17 0 17 23 0 17 5 30 10 30 6 0 10 5 10 10 0 14 -10 12 -44 -5z"/>
<path d="M1892 793 c-6 -2 -10 -9 -7 -14 4 -5 -1 -6 -9 -3 -24 9 -47 -3 -40
-21 4 -10 13 -13 25 -10 12 4 19 1 19 -7 0 -7 6 -4 12 7 6 11 17 24 25 28 24
15 4 32 -25 20z"/>
<path d="M1770 745 c0 -9 5 -13 11 -9 6 3 15 0 21 -7 7 -11 8 -9 6 6 -4 24
-38 34 -38 10z"/>
<path d="M2665 724 c9 -9 19 -13 23 -10 3 4 0 11 -8 16 -24 15 -33 11 -15 -6z"/>
<path d="M2745 730 c3 -5 8 -10 11 -10 2 0 4 5 4 10 0 6 -5 10 -11 10 -5 0 -7
-4 -4 -10z"/>
<path d="M2792 724 c10 -10 20 -15 24 -12 3 4 -5 12 -18 18 -22 12 -22 12 -6
-6z"/>
<path d="M3160 720 c0 -5 5 -10 10 -10 6 0 10 5 10 10 0 6 -4 10 -10 10 -5 0
-10 -4 -10 -10z"/>
<path d="M2800 696 c0 -2 8 -10 18 -17 15 -13 16 -12 3 4 -13 16 -21 21 -21
13z"/>
<path d="M3168 693 c7 -3 16 -2 19 1 4 3 -2 6 -13 5 -11 0 -14 -3 -6 -6z"/>
<path d="M2284 675 c-4 -8 1 -26 10 -40 22 -34 21 -66 -1 -58 -10 3 -25 11
-33 18 -18 14 -60 26 -60 17 0 -4 -11 -8 -25 -9 -50 -4 -55 -7 -55 -29 0 -15
9 -27 30 -36 17 -7 30 -19 30 -25 0 -8 14 -13 35 -13 19 0 35 -4 35 -8 0 -8
34 -27 125 -68 22 -10 48 -26 58 -35 10 -9 39 -25 65 -35 26 -9 67 -30 92 -45
25 -15 56 -30 70 -34 14 -4 32 -13 40 -20 8 -8 26 -18 40 -24 14 -6 33 -17 43
-23 14 -11 19 -10 27 2 6 8 9 21 7 28 -5 28 -105 131 -152 156 -31 17 -63 46
-85 76 -28 39 -40 48 -62 48 -30 -1 -37 -12 -13 -22 17 -6 19 -24 6 -45 -8
-12 -16 -13 -50 -2 -24 7 -41 18 -41 26 0 8 5 15 11 15 18 0 -8 27 -32 33 -19
5 -20 4 -4 -19 16 -25 8 -33 -13 -11 -7 6 -16 12 -20 12 -4 0 -18 8 -32 18
l-24 17 31 0 c17 0 33 5 35 11 2 6 21 3 51 -10 26 -11 47 -16 47 -11 0 5 -5
12 -10 15 -6 4 -9 14 -8 23 2 12 -8 18 -42 24 -89 16 -108 31 -101 86 3 17
-18 15 -25 -3z m296 -240 c0 -8 -4 -15 -10 -15 -5 0 -10 7 -10 15 0 8 5 15 10
15 6 0 10 -7 10 -15z m51 -111 c6 -8 8 -14 4 -14 -9 0 -75 40 -75 45 0 9 60
-18 71 -31z"/>
<path d="M1913 649 c-1 -10 2 -19 8 -19 11 0 12 27 1 34 -4 2 -9 -4 -9 -15z"/>
<path d="M3166 662 c-2 -4 2 -15 9 -25 11 -16 13 -16 19 -1 3 8 6 20 6 25 0
11 -27 12 -34 1z"/>
<path d="M1860 618 c0 -19 2 -20 10 -8 13 19 13 30 0 30 -5 0 -10 -10 -10 -22z"/>
<path d="M1432 551 c-44 -33 -82 -64 -86 -69 -3 -5 3 -17 13 -26 18 -16 23
-14 100 60 72 68 89 94 61 94 -4 0 -44 -27 -88 -59z"/>
<path d="M3177 585 c-4 -8 -2 -17 3 -20 6 -4 10 3 10 14 0 25 -6 27 -13 6z"/>
<path d="M1575 571 c-11 -5 -24 -6 -29 -4 -8 5 -156 -135 -156 -148 0 -11 74
-17 87 -6 16 12 7 28 -11 21 -7 -3 -18 2 -25 10 -10 12 -8 17 11 27 13 7 30
14 38 15 7 2 22 13 32 26 10 13 18 17 18 10 0 -7 4 -11 10 -7 9 6 54 66 48 64
-2 0 -12 -4 -23 -8z m-145 -141 c0 -5 -4 -10 -10 -10 -5 0 -10 5 -10 10 0 6 5
10 10 10 6 0 10 -4 10 -10z"/>
<path d="M1604 468 l-19 -23 23 19 c21 18 27 26 19 26 -2 0 -12 -10 -23 -22z"/>
<path d="M2961 420 c-10 -17 -16 -40 -14 -51 3 -10 1 -19 -4 -19 -10 0 -9 -34
2 -67 15 -48 67 -16 86 51 8 31 7 44 -9 74 -24 47 -37 50 -61 12z"/>
<path d="M1502 409 c-19 -30 -8 -34 12 -4 9 14 13 25 9 25 -5 0 -14 -9 -21
-21z"/>
<path d="M1539 383 c-13 -16 -12 -17 4 -4 16 13 21 21 13 21 -2 0 -10 -8 -17
-17z"/>
</g>
</svg>
